<mxfile host="app.diagrams.net" modified="2023-03-22T03:02:39.021Z" agent="5.0 (Windows NT 10.0; Win64; x64) AppleWebKit/537.36 (KHTML, like Gecko) Chrome/111.0.0.0 Safari/537.36" etag="fW0MAyJCkUxIaOcdBeL6" version="21.0.6" type="github">
  <diagram id="C5RBs43oDa-KdzZeNtuy" name="Page-1">
    <mxGraphModel dx="1434" dy="756" grid="1" gridSize="10" guides="1" tooltips="1" connect="1" arrows="1" fold="1" page="1" pageScale="1" pageWidth="827" pageHeight="1169" math="0" shadow="0">
      <root>
        <mxCell id="WIyWlLk6GJQsqaUBKTNV-0" />
        <mxCell id="WIyWlLk6GJQsqaUBKTNV-1" parent="WIyWlLk6GJQsqaUBKTNV-0" />
        <mxCell id="pOX3ojqlP_ocPjnkbAkA-75" value="" style="rounded=0;whiteSpace=wrap;html=1;dashed=1;" parent="WIyWlLk6GJQsqaUBKTNV-1" vertex="1">
          <mxGeometry x="580" y="140" width="200" height="410" as="geometry" />
        </mxCell>
        <mxCell id="pOX3ojqlP_ocPjnkbAkA-71" value="" style="rounded=0;whiteSpace=wrap;html=1;dashed=1;" parent="WIyWlLk6GJQsqaUBKTNV-1" vertex="1">
          <mxGeometry x="120" y="620" width="700" height="260" as="geometry" />
        </mxCell>
        <mxCell id="WIyWlLk6GJQsqaUBKTNV-2" value="" style="rounded=0;html=1;jettySize=auto;orthogonalLoop=1;fontSize=11;endArrow=block;endFill=0;endSize=8;strokeWidth=1;shadow=0;labelBackgroundColor=none;edgeStyle=orthogonalEdgeStyle;" parent="WIyWlLk6GJQsqaUBKTNV-1" source="WIyWlLk6GJQsqaUBKTNV-3" edge="1">
          <mxGeometry relative="1" as="geometry">
            <mxPoint x="340" y="140" as="targetPoint" />
          </mxGeometry>
        </mxCell>
        <mxCell id="WIyWlLk6GJQsqaUBKTNV-3" value="logger.info" style="rounded=1;whiteSpace=wrap;html=1;fontSize=12;glass=0;strokeWidth=1;shadow=0;" parent="WIyWlLk6GJQsqaUBKTNV-1" vertex="1">
          <mxGeometry x="280" y="50" width="120" height="40" as="geometry" />
        </mxCell>
        <mxCell id="pOX3ojqlP_ocPjnkbAkA-8" style="edgeStyle=orthogonalEdgeStyle;rounded=0;orthogonalLoop=1;jettySize=auto;html=1;exitX=0.5;exitY=1;exitDx=0;exitDy=0;entryX=0;entryY=0.5;entryDx=0;entryDy=0;" parent="WIyWlLk6GJQsqaUBKTNV-1" source="pOX3ojqlP_ocPjnkbAkA-0" target="pOX3ojqlP_ocPjnkbAkA-3" edge="1">
          <mxGeometry relative="1" as="geometry" />
        </mxCell>
        <mxCell id="pOX3ojqlP_ocPjnkbAkA-9" style="edgeStyle=orthogonalEdgeStyle;rounded=0;orthogonalLoop=1;jettySize=auto;html=1;exitX=0.5;exitY=1;exitDx=0;exitDy=0;entryX=0;entryY=0.5;entryDx=0;entryDy=0;" parent="WIyWlLk6GJQsqaUBKTNV-1" source="pOX3ojqlP_ocPjnkbAkA-0" target="pOX3ojqlP_ocPjnkbAkA-4" edge="1">
          <mxGeometry relative="1" as="geometry" />
        </mxCell>
        <mxCell id="pOX3ojqlP_ocPjnkbAkA-10" style="edgeStyle=orthogonalEdgeStyle;rounded=0;orthogonalLoop=1;jettySize=auto;html=1;exitX=0.5;exitY=1;exitDx=0;exitDy=0;entryX=0;entryY=0.5;entryDx=0;entryDy=0;" parent="WIyWlLk6GJQsqaUBKTNV-1" source="pOX3ojqlP_ocPjnkbAkA-0" target="pOX3ojqlP_ocPjnkbAkA-5" edge="1">
          <mxGeometry relative="1" as="geometry" />
        </mxCell>
        <mxCell id="pOX3ojqlP_ocPjnkbAkA-0" value="KafkaConsumer批量消费数据" style="rounded=0;whiteSpace=wrap;html=1;" parent="WIyWlLk6GJQsqaUBKTNV-1" vertex="1">
          <mxGeometry x="280" y="140" width="120" height="60" as="geometry" />
        </mxCell>
        <mxCell id="pOX3ojqlP_ocPjnkbAkA-2" value="发送kafka数据" style="text;html=1;strokeColor=none;fillColor=none;align=center;verticalAlign=middle;whiteSpace=wrap;rounded=0;" parent="WIyWlLk6GJQsqaUBKTNV-1" vertex="1">
          <mxGeometry x="310" y="100" width="60" height="30" as="geometry" />
        </mxCell>
        <mxCell id="pOX3ojqlP_ocPjnkbAkA-21" style="rounded=0;orthogonalLoop=1;jettySize=auto;html=1;exitX=1;exitY=0.5;exitDx=0;exitDy=0;entryX=0;entryY=0.5;entryDx=0;entryDy=0;" parent="WIyWlLk6GJQsqaUBKTNV-1" source="pOX3ojqlP_ocPjnkbAkA-3" target="pOX3ojqlP_ocPjnkbAkA-16" edge="1">
          <mxGeometry relative="1" as="geometry" />
        </mxCell>
        <mxCell id="pOX3ojqlP_ocPjnkbAkA-30" style="rounded=0;orthogonalLoop=1;jettySize=auto;html=1;exitX=1;exitY=0.5;exitDx=0;exitDy=0;entryX=0;entryY=0.5;entryDx=0;entryDy=0;" parent="WIyWlLk6GJQsqaUBKTNV-1" source="pOX3ojqlP_ocPjnkbAkA-3" target="pOX3ojqlP_ocPjnkbAkA-17" edge="1">
          <mxGeometry relative="1" as="geometry" />
        </mxCell>
        <mxCell id="pOX3ojqlP_ocPjnkbAkA-3" value="分发线程" style="rounded=0;whiteSpace=wrap;html=1;rotation=90;" parent="WIyWlLk6GJQsqaUBKTNV-1" vertex="1">
          <mxGeometry x="90" y="270" width="120" height="60" as="geometry" />
        </mxCell>
        <mxCell id="pOX3ojqlP_ocPjnkbAkA-31" style="rounded=0;orthogonalLoop=1;jettySize=auto;html=1;exitX=1;exitY=0.5;exitDx=0;exitDy=0;entryX=0;entryY=0.5;entryDx=0;entryDy=0;" parent="WIyWlLk6GJQsqaUBKTNV-1" source="pOX3ojqlP_ocPjnkbAkA-4" target="pOX3ojqlP_ocPjnkbAkA-16" edge="1">
          <mxGeometry relative="1" as="geometry" />
        </mxCell>
        <mxCell id="pOX3ojqlP_ocPjnkbAkA-32" style="rounded=0;orthogonalLoop=1;jettySize=auto;html=1;exitX=1;exitY=0.5;exitDx=0;exitDy=0;entryX=0;entryY=0.5;entryDx=0;entryDy=0;" parent="WIyWlLk6GJQsqaUBKTNV-1" source="pOX3ojqlP_ocPjnkbAkA-4" target="pOX3ojqlP_ocPjnkbAkA-19" edge="1">
          <mxGeometry relative="1" as="geometry" />
        </mxCell>
        <mxCell id="pOX3ojqlP_ocPjnkbAkA-33" style="rounded=0;orthogonalLoop=1;jettySize=auto;html=1;exitX=1;exitY=0.5;exitDx=0;exitDy=0;" parent="WIyWlLk6GJQsqaUBKTNV-1" source="pOX3ojqlP_ocPjnkbAkA-4" edge="1">
          <mxGeometry relative="1" as="geometry">
            <mxPoint x="340" y="430" as="targetPoint" />
          </mxGeometry>
        </mxCell>
        <mxCell id="pOX3ojqlP_ocPjnkbAkA-34" style="rounded=0;orthogonalLoop=1;jettySize=auto;html=1;exitX=1;exitY=0.5;exitDx=0;exitDy=0;entryX=0;entryY=0.5;entryDx=0;entryDy=0;" parent="WIyWlLk6GJQsqaUBKTNV-1" source="pOX3ojqlP_ocPjnkbAkA-4" target="pOX3ojqlP_ocPjnkbAkA-18" edge="1">
          <mxGeometry relative="1" as="geometry" />
        </mxCell>
        <mxCell id="pOX3ojqlP_ocPjnkbAkA-35" style="rounded=0;orthogonalLoop=1;jettySize=auto;html=1;exitX=1;exitY=0.5;exitDx=0;exitDy=0;entryX=0;entryY=0.5;entryDx=0;entryDy=0;" parent="WIyWlLk6GJQsqaUBKTNV-1" source="pOX3ojqlP_ocPjnkbAkA-4" target="pOX3ojqlP_ocPjnkbAkA-17" edge="1">
          <mxGeometry relative="1" as="geometry" />
        </mxCell>
        <mxCell id="pOX3ojqlP_ocPjnkbAkA-4" value="分发线程" style="rounded=0;whiteSpace=wrap;html=1;rotation=90;" parent="WIyWlLk6GJQsqaUBKTNV-1" vertex="1">
          <mxGeometry x="280" y="270" width="120" height="60" as="geometry" />
        </mxCell>
        <mxCell id="pOX3ojqlP_ocPjnkbAkA-36" style="rounded=0;orthogonalLoop=1;jettySize=auto;html=1;exitX=1;exitY=0.5;exitDx=0;exitDy=0;entryX=0;entryY=0.5;entryDx=0;entryDy=0;" parent="WIyWlLk6GJQsqaUBKTNV-1" source="pOX3ojqlP_ocPjnkbAkA-5" target="pOX3ojqlP_ocPjnkbAkA-16" edge="1">
          <mxGeometry relative="1" as="geometry" />
        </mxCell>
        <mxCell id="pOX3ojqlP_ocPjnkbAkA-37" style="rounded=0;orthogonalLoop=1;jettySize=auto;html=1;exitX=1;exitY=0.5;exitDx=0;exitDy=0;entryX=0;entryY=0.5;entryDx=0;entryDy=0;" parent="WIyWlLk6GJQsqaUBKTNV-1" source="pOX3ojqlP_ocPjnkbAkA-5" target="pOX3ojqlP_ocPjnkbAkA-19" edge="1">
          <mxGeometry relative="1" as="geometry" />
        </mxCell>
        <mxCell id="pOX3ojqlP_ocPjnkbAkA-38" style="rounded=0;orthogonalLoop=1;jettySize=auto;html=1;exitX=1;exitY=0.5;exitDx=0;exitDy=0;entryX=0;entryY=0.5;entryDx=0;entryDy=0;" parent="WIyWlLk6GJQsqaUBKTNV-1" source="pOX3ojqlP_ocPjnkbAkA-5" target="pOX3ojqlP_ocPjnkbAkA-20" edge="1">
          <mxGeometry relative="1" as="geometry" />
        </mxCell>
        <mxCell id="pOX3ojqlP_ocPjnkbAkA-46" style="rounded=0;orthogonalLoop=1;jettySize=auto;html=1;exitX=1;exitY=0.5;exitDx=0;exitDy=0;" parent="WIyWlLk6GJQsqaUBKTNV-1" source="pOX3ojqlP_ocPjnkbAkA-5" edge="1">
          <mxGeometry relative="1" as="geometry">
            <mxPoint x="430" y="430" as="targetPoint" />
          </mxGeometry>
        </mxCell>
        <mxCell id="pOX3ojqlP_ocPjnkbAkA-47" style="edgeStyle=orthogonalEdgeStyle;rounded=0;orthogonalLoop=1;jettySize=auto;html=1;exitX=1;exitY=0.5;exitDx=0;exitDy=0;" parent="WIyWlLk6GJQsqaUBKTNV-1" source="pOX3ojqlP_ocPjnkbAkA-5" edge="1">
          <mxGeometry relative="1" as="geometry">
            <mxPoint x="520" y="430" as="targetPoint" />
          </mxGeometry>
        </mxCell>
        <mxCell id="pOX3ojqlP_ocPjnkbAkA-5" value="分发线程" style="rounded=0;whiteSpace=wrap;html=1;rotation=90;" parent="WIyWlLk6GJQsqaUBKTNV-1" vertex="1">
          <mxGeometry x="460" y="270" width="120" height="60" as="geometry" />
        </mxCell>
        <mxCell id="pOX3ojqlP_ocPjnkbAkA-16" value="消费线程" style="rounded=0;rotation=90;whiteSpace=wrap;html=1;align=center;" parent="WIyWlLk6GJQsqaUBKTNV-1" vertex="1">
          <mxGeometry x="90" y="460" width="120" height="60" as="geometry" />
        </mxCell>
        <mxCell id="pOX3ojqlP_ocPjnkbAkA-79" style="edgeStyle=orthogonalEdgeStyle;rounded=0;orthogonalLoop=1;jettySize=auto;html=1;exitX=0.5;exitY=0;exitDx=0;exitDy=0;entryX=0.5;entryY=1;entryDx=0;entryDy=0;dashed=1;strokeWidth=2;strokeColor=#f90606;" parent="WIyWlLk6GJQsqaUBKTNV-1" source="pOX3ojqlP_ocPjnkbAkA-17" target="pOX3ojqlP_ocPjnkbAkA-77" edge="1">
          <mxGeometry relative="1" as="geometry" />
        </mxCell>
        <mxCell id="sJmcrCW9lOtQJ8LdQnkp-5" style="edgeStyle=orthogonalEdgeStyle;rounded=0;orthogonalLoop=1;jettySize=auto;html=1;exitX=0.5;exitY=0;exitDx=0;exitDy=0;entryX=0;entryY=0.5;entryDx=0;entryDy=0;strokeWidth=2;dashed=1;fillColor=#f8cecc;strokeColor=#0616ef;" edge="1" parent="WIyWlLk6GJQsqaUBKTNV-1" source="pOX3ojqlP_ocPjnkbAkA-17" target="sJmcrCW9lOtQJ8LdQnkp-4">
          <mxGeometry relative="1" as="geometry" />
        </mxCell>
        <mxCell id="pOX3ojqlP_ocPjnkbAkA-17" value="消费线程" style="rounded=0;whiteSpace=wrap;html=1;rotation=90;" parent="WIyWlLk6GJQsqaUBKTNV-1" vertex="1">
          <mxGeometry x="460" y="460" width="120" height="60" as="geometry" />
        </mxCell>
        <mxCell id="pOX3ojqlP_ocPjnkbAkA-18" value="消费线程" style="rounded=0;whiteSpace=wrap;html=1;rotation=90;" parent="WIyWlLk6GJQsqaUBKTNV-1" vertex="1">
          <mxGeometry x="370" y="460" width="120" height="60" as="geometry" />
        </mxCell>
        <mxCell id="pOX3ojqlP_ocPjnkbAkA-19" value="消费线程" style="rounded=0;whiteSpace=wrap;html=1;rotation=90;" parent="WIyWlLk6GJQsqaUBKTNV-1" vertex="1">
          <mxGeometry x="180" y="460" width="120" height="60" as="geometry" />
        </mxCell>
        <mxCell id="pOX3ojqlP_ocPjnkbAkA-20" value="消费线程" style="rounded=0;whiteSpace=wrap;html=1;rotation=90;" parent="WIyWlLk6GJQsqaUBKTNV-1" vertex="1">
          <mxGeometry x="280" y="460" width="120" height="60" as="geometry" />
        </mxCell>
        <mxCell id="pOX3ojqlP_ocPjnkbAkA-23" value="" style="endArrow=classic;html=1;rounded=0;exitX=1;exitY=0.5;exitDx=0;exitDy=0;entryX=0;entryY=0.5;entryDx=0;entryDy=0;" parent="WIyWlLk6GJQsqaUBKTNV-1" source="pOX3ojqlP_ocPjnkbAkA-3" target="pOX3ojqlP_ocPjnkbAkA-19" edge="1">
          <mxGeometry width="50" height="50" relative="1" as="geometry">
            <mxPoint x="390" y="400" as="sourcePoint" />
            <mxPoint x="440" y="350" as="targetPoint" />
          </mxGeometry>
        </mxCell>
        <mxCell id="pOX3ojqlP_ocPjnkbAkA-25" value="" style="endArrow=classic;html=1;rounded=0;entryX=0;entryY=0.5;entryDx=0;entryDy=0;" parent="WIyWlLk6GJQsqaUBKTNV-1" target="pOX3ojqlP_ocPjnkbAkA-20" edge="1">
          <mxGeometry width="50" height="50" relative="1" as="geometry">
            <mxPoint x="150" y="360" as="sourcePoint" />
            <mxPoint x="250" y="440" as="targetPoint" />
          </mxGeometry>
        </mxCell>
        <mxCell id="pOX3ojqlP_ocPjnkbAkA-29" value="" style="endArrow=classic;html=1;rounded=0;entryX=0;entryY=0.5;entryDx=0;entryDy=0;" parent="WIyWlLk6GJQsqaUBKTNV-1" target="pOX3ojqlP_ocPjnkbAkA-18" edge="1">
          <mxGeometry width="50" height="50" relative="1" as="geometry">
            <mxPoint x="150" y="360" as="sourcePoint" />
            <mxPoint x="440" y="350" as="targetPoint" />
          </mxGeometry>
        </mxCell>
        <mxCell id="pOX3ojqlP_ocPjnkbAkA-60" style="edgeStyle=orthogonalEdgeStyle;rounded=0;orthogonalLoop=1;jettySize=auto;html=1;exitX=0.5;exitY=1;exitDx=0;exitDy=0;entryX=0.5;entryY=0;entryDx=0;entryDy=0;" parent="WIyWlLk6GJQsqaUBKTNV-1" source="pOX3ojqlP_ocPjnkbAkA-48" target="pOX3ojqlP_ocPjnkbAkA-53" edge="1">
          <mxGeometry relative="1" as="geometry" />
        </mxCell>
        <mxCell id="pOX3ojqlP_ocPjnkbAkA-48" value="partition5" style="text;html=1;strokeColor=none;fillColor=none;align=center;verticalAlign=middle;whiteSpace=wrap;rounded=0;" parent="WIyWlLk6GJQsqaUBKTNV-1" vertex="1">
          <mxGeometry x="490" y="520" width="60" height="30" as="geometry" />
        </mxCell>
        <mxCell id="pOX3ojqlP_ocPjnkbAkA-59" style="edgeStyle=orthogonalEdgeStyle;rounded=0;orthogonalLoop=1;jettySize=auto;html=1;exitX=0.5;exitY=1;exitDx=0;exitDy=0;entryX=0.5;entryY=0;entryDx=0;entryDy=0;" parent="WIyWlLk6GJQsqaUBKTNV-1" source="pOX3ojqlP_ocPjnkbAkA-49" target="pOX3ojqlP_ocPjnkbAkA-53" edge="1">
          <mxGeometry relative="1" as="geometry" />
        </mxCell>
        <mxCell id="pOX3ojqlP_ocPjnkbAkA-49" value="partition4" style="text;html=1;strokeColor=none;fillColor=none;align=center;verticalAlign=middle;whiteSpace=wrap;rounded=0;" parent="WIyWlLk6GJQsqaUBKTNV-1" vertex="1">
          <mxGeometry x="400" y="520" width="60" height="30" as="geometry" />
        </mxCell>
        <mxCell id="pOX3ojqlP_ocPjnkbAkA-58" style="edgeStyle=orthogonalEdgeStyle;rounded=0;orthogonalLoop=1;jettySize=auto;html=1;exitX=0.5;exitY=1;exitDx=0;exitDy=0;entryX=0.5;entryY=0;entryDx=0;entryDy=0;" parent="WIyWlLk6GJQsqaUBKTNV-1" source="pOX3ojqlP_ocPjnkbAkA-50" target="pOX3ojqlP_ocPjnkbAkA-53" edge="1">
          <mxGeometry relative="1" as="geometry">
            <mxPoint x="340" y="650" as="targetPoint" />
          </mxGeometry>
        </mxCell>
        <mxCell id="pOX3ojqlP_ocPjnkbAkA-50" value="partition3" style="text;html=1;strokeColor=none;fillColor=none;align=center;verticalAlign=middle;whiteSpace=wrap;rounded=0;" parent="WIyWlLk6GJQsqaUBKTNV-1" vertex="1">
          <mxGeometry x="310" y="520" width="60" height="30" as="geometry" />
        </mxCell>
        <mxCell id="pOX3ojqlP_ocPjnkbAkA-55" style="edgeStyle=orthogonalEdgeStyle;rounded=0;orthogonalLoop=1;jettySize=auto;html=1;exitX=0.5;exitY=1;exitDx=0;exitDy=0;entryX=0.5;entryY=0;entryDx=0;entryDy=0;" parent="WIyWlLk6GJQsqaUBKTNV-1" source="pOX3ojqlP_ocPjnkbAkA-51" target="pOX3ojqlP_ocPjnkbAkA-53" edge="1">
          <mxGeometry relative="1" as="geometry">
            <mxPoint x="340" y="650" as="targetPoint" />
          </mxGeometry>
        </mxCell>
        <mxCell id="pOX3ojqlP_ocPjnkbAkA-51" value="partition2" style="text;html=1;strokeColor=none;fillColor=none;align=center;verticalAlign=middle;whiteSpace=wrap;rounded=0;" parent="WIyWlLk6GJQsqaUBKTNV-1" vertex="1">
          <mxGeometry x="210" y="520" width="60" height="30" as="geometry" />
        </mxCell>
        <mxCell id="pOX3ojqlP_ocPjnkbAkA-54" style="edgeStyle=orthogonalEdgeStyle;rounded=0;orthogonalLoop=1;jettySize=auto;html=1;exitX=0.5;exitY=1;exitDx=0;exitDy=0;" parent="WIyWlLk6GJQsqaUBKTNV-1" source="pOX3ojqlP_ocPjnkbAkA-52" target="pOX3ojqlP_ocPjnkbAkA-53" edge="1">
          <mxGeometry relative="1" as="geometry" />
        </mxCell>
        <mxCell id="pOX3ojqlP_ocPjnkbAkA-52" value="partition1" style="text;html=1;strokeColor=none;fillColor=none;align=center;verticalAlign=middle;whiteSpace=wrap;rounded=0;" parent="WIyWlLk6GJQsqaUBKTNV-1" vertex="1">
          <mxGeometry x="120" y="520" width="60" height="30" as="geometry" />
        </mxCell>
        <mxCell id="pOX3ojqlP_ocPjnkbAkA-63" style="edgeStyle=orthogonalEdgeStyle;rounded=0;orthogonalLoop=1;jettySize=auto;html=1;exitX=1;exitY=0.5;exitDx=0;exitDy=0;" parent="WIyWlLk6GJQsqaUBKTNV-1" source="pOX3ojqlP_ocPjnkbAkA-53" edge="1">
          <mxGeometry relative="1" as="geometry">
            <mxPoint x="500" y="710" as="targetPoint" />
          </mxGeometry>
        </mxCell>
        <mxCell id="pOX3ojqlP_ocPjnkbAkA-69" style="edgeStyle=orthogonalEdgeStyle;rounded=0;orthogonalLoop=1;jettySize=auto;html=1;exitX=0.5;exitY=1;exitDx=0;exitDy=0;entryX=0.5;entryY=0;entryDx=0;entryDy=0;" parent="WIyWlLk6GJQsqaUBKTNV-1" source="pOX3ojqlP_ocPjnkbAkA-53" edge="1">
          <mxGeometry relative="1" as="geometry">
            <mxPoint x="340" y="800" as="targetPoint" />
          </mxGeometry>
        </mxCell>
        <mxCell id="pOX3ojqlP_ocPjnkbAkA-53" value="partitionN，&lt;b&gt;offset=n-1&lt;/b&gt;消费完成" style="rhombus;whiteSpace=wrap;html=1;" parent="WIyWlLk6GJQsqaUBKTNV-1" vertex="1">
          <mxGeometry x="230" y="670" width="220" height="80" as="geometry" />
        </mxCell>
        <mxCell id="pOX3ojqlP_ocPjnkbAkA-61" value="当前偏移量offset=n" style="text;html=1;strokeColor=none;fillColor=none;align=center;verticalAlign=middle;whiteSpace=wrap;rounded=0;" parent="WIyWlLk6GJQsqaUBKTNV-1" vertex="1">
          <mxGeometry x="310" y="620" width="60" height="30" as="geometry" />
        </mxCell>
        <mxCell id="pOX3ojqlP_ocPjnkbAkA-67" style="edgeStyle=orthogonalEdgeStyle;rounded=0;orthogonalLoop=1;jettySize=auto;html=1;exitX=1;exitY=0.5;exitDx=0;exitDy=0;exitPerimeter=0;entryX=0.5;entryY=0;entryDx=0;entryDy=0;" parent="WIyWlLk6GJQsqaUBKTNV-1" source="pOX3ojqlP_ocPjnkbAkA-64" target="pOX3ojqlP_ocPjnkbAkA-66" edge="1">
          <mxGeometry relative="1" as="geometry" />
        </mxCell>
        <mxCell id="pOX3ojqlP_ocPjnkbAkA-64" value="partition N，offset=n&lt;br&gt;数据推送至FIFO队列" style="strokeWidth=2;html=1;shape=mxgraph.flowchart.direct_data;whiteSpace=wrap;" parent="WIyWlLk6GJQsqaUBKTNV-1" vertex="1">
          <mxGeometry x="470" y="680" width="170" height="60" as="geometry" />
        </mxCell>
        <mxCell id="pOX3ojqlP_ocPjnkbAkA-65" value="N" style="text;html=1;strokeColor=none;fillColor=none;align=center;verticalAlign=middle;whiteSpace=wrap;rounded=0;" parent="WIyWlLk6GJQsqaUBKTNV-1" vertex="1">
          <mxGeometry x="430" y="680" width="60" height="30" as="geometry" />
        </mxCell>
        <mxCell id="pOX3ojqlP_ocPjnkbAkA-66" value="慢任务处理，定时拉取数据，更新状态" style="rounded=1;whiteSpace=wrap;html=1;" parent="WIyWlLk6GJQsqaUBKTNV-1" vertex="1">
          <mxGeometry x="600" y="800" width="120" height="60" as="geometry" />
        </mxCell>
        <mxCell id="pOX3ojqlP_ocPjnkbAkA-68" value="pull" style="text;html=1;strokeColor=none;fillColor=none;align=center;verticalAlign=middle;whiteSpace=wrap;rounded=0;" parent="WIyWlLk6GJQsqaUBKTNV-1" vertex="1">
          <mxGeometry x="630" y="680" width="60" height="30" as="geometry" />
        </mxCell>
        <mxCell id="pOX3ojqlP_ocPjnkbAkA-70" value="数据处理" style="rounded=1;whiteSpace=wrap;html=1;" parent="WIyWlLk6GJQsqaUBKTNV-1" vertex="1">
          <mxGeometry x="280" y="800" width="120" height="60" as="geometry" />
        </mxCell>
        <mxCell id="pOX3ojqlP_ocPjnkbAkA-73" value="保证partition顺序消费" style="text;html=1;strokeColor=none;fillColor=none;align=center;verticalAlign=middle;whiteSpace=wrap;rounded=0;" parent="WIyWlLk6GJQsqaUBKTNV-1" vertex="1">
          <mxGeometry x="130" y="630" width="80" height="30" as="geometry" />
        </mxCell>
        <mxCell id="pOX3ojqlP_ocPjnkbAkA-74" value="&lt;h1&gt;Kafka消费&lt;/h1&gt;&lt;p&gt;日志logback对接kafka完成消费逻辑，保证单partition消费顺序性&lt;/p&gt;" style="text;html=1;strokeColor=none;fillColor=none;spacing=5;spacingTop=-20;whiteSpace=wrap;overflow=hidden;rounded=0;" parent="WIyWlLk6GJQsqaUBKTNV-1" vertex="1">
          <mxGeometry x="20" y="20" width="190" height="120" as="geometry" />
        </mxCell>
        <mxCell id="pOX3ojqlP_ocPjnkbAkA-76" value="死循环逻辑" style="text;html=1;strokeColor=none;fillColor=none;align=center;verticalAlign=middle;whiteSpace=wrap;rounded=0;" parent="WIyWlLk6GJQsqaUBKTNV-1" vertex="1">
          <mxGeometry x="700" y="140" width="80" height="30" as="geometry" />
        </mxCell>
        <mxCell id="pOX3ojqlP_ocPjnkbAkA-81" style="edgeStyle=orthogonalEdgeStyle;rounded=0;orthogonalLoop=1;jettySize=auto;html=1;exitX=0.5;exitY=0;exitDx=0;exitDy=0;dashed=1;strokeColor=#f70808;strokeWidth=2;" parent="WIyWlLk6GJQsqaUBKTNV-1" source="pOX3ojqlP_ocPjnkbAkA-77" target="pOX3ojqlP_ocPjnkbAkA-80" edge="1">
          <mxGeometry relative="1" as="geometry">
            <Array as="points">
              <mxPoint x="680" y="350" />
              <mxPoint x="680" y="350" />
            </Array>
          </mxGeometry>
        </mxCell>
        <mxCell id="pOX3ojqlP_ocPjnkbAkA-77" value="调用lobback记录日志" style="rounded=0;whiteSpace=wrap;html=1;" parent="WIyWlLk6GJQsqaUBKTNV-1" vertex="1">
          <mxGeometry x="620" y="370" width="120" height="60" as="geometry" />
        </mxCell>
        <mxCell id="pOX3ojqlP_ocPjnkbAkA-82" style="edgeStyle=orthogonalEdgeStyle;rounded=0;orthogonalLoop=1;jettySize=auto;html=1;exitX=0.5;exitY=0;exitDx=0;exitDy=0;entryX=1;entryY=0.5;entryDx=0;entryDy=0;strokeWidth=2;strokeColor=#f20707;fillColor=#f8cecc;dashed=1;" parent="WIyWlLk6GJQsqaUBKTNV-1" source="pOX3ojqlP_ocPjnkbAkA-80" target="pOX3ojqlP_ocPjnkbAkA-0" edge="1">
          <mxGeometry relative="1" as="geometry">
            <Array as="points">
              <mxPoint x="680" y="170" />
            </Array>
          </mxGeometry>
        </mxCell>
        <mxCell id="pOX3ojqlP_ocPjnkbAkA-80" value="logger.info" style="rounded=0;whiteSpace=wrap;html=1;" parent="WIyWlLk6GJQsqaUBKTNV-1" vertex="1">
          <mxGeometry x="620" y="260" width="120" height="60" as="geometry" />
        </mxCell>
        <mxCell id="pOX3ojqlP_ocPjnkbAkA-83" value="重复数据需剔除" style="ellipse;shape=cloud;whiteSpace=wrap;html=1;" parent="WIyWlLk6GJQsqaUBKTNV-1" vertex="1">
          <mxGeometry x="430" y="110" width="120" height="80" as="geometry" />
        </mxCell>
        <mxCell id="sJmcrCW9lOtQJ8LdQnkp-2" value="" style="curved=1;endArrow=classic;html=1;rounded=0;" edge="1" parent="WIyWlLk6GJQsqaUBKTNV-1">
          <mxGeometry width="50" height="50" relative="1" as="geometry">
            <mxPoint x="600" y="130" as="sourcePoint" />
            <mxPoint x="910" y="130" as="targetPoint" />
            <Array as="points">
              <mxPoint x="600" y="130" />
              <mxPoint x="610" y="100" />
              <mxPoint x="670" y="40" />
            </Array>
          </mxGeometry>
        </mxCell>
        <mxCell id="sJmcrCW9lOtQJ8LdQnkp-3" value="处理方式" style="text;html=1;strokeColor=none;fillColor=none;align=center;verticalAlign=middle;whiteSpace=wrap;rounded=0;" vertex="1" parent="WIyWlLk6GJQsqaUBKTNV-1">
          <mxGeometry x="660" y="40" width="60" height="30" as="geometry" />
        </mxCell>
        <mxCell id="sJmcrCW9lOtQJ8LdQnkp-4" value="&lt;b&gt;logstash&lt;/b&gt;&lt;br&gt;监听日志对应topic" style="shape=process;whiteSpace=wrap;html=1;backgroundOutline=1;" vertex="1" parent="WIyWlLk6GJQsqaUBKTNV-1">
          <mxGeometry x="860" y="460" width="220" height="60" as="geometry" />
        </mxCell>
        <mxCell id="sJmcrCW9lOtQJ8LdQnkp-6" value="①" style="text;html=1;strokeColor=none;fillColor=none;align=center;verticalAlign=middle;whiteSpace=wrap;rounded=0;" vertex="1" parent="WIyWlLk6GJQsqaUBKTNV-1">
          <mxGeometry x="640" y="450" width="60" height="30" as="geometry" />
        </mxCell>
        <mxCell id="sJmcrCW9lOtQJ8LdQnkp-7" value="②" style="text;html=1;strokeColor=none;fillColor=none;align=center;verticalAlign=middle;whiteSpace=wrap;rounded=0;" vertex="1" parent="WIyWlLk6GJQsqaUBKTNV-1">
          <mxGeometry x="730" y="490" width="60" height="30" as="geometry" />
        </mxCell>
        <mxCell id="sJmcrCW9lOtQJ8LdQnkp-8" value="Filter日志过滤器" style="ellipse;shape=cloud;whiteSpace=wrap;html=1;" vertex="1" parent="WIyWlLk6GJQsqaUBKTNV-1">
          <mxGeometry x="870" y="330" width="200" height="80" as="geometry" />
        </mxCell>
        <mxCell id="sJmcrCW9lOtQJ8LdQnkp-9" style="edgeStyle=orthogonalEdgeStyle;rounded=0;orthogonalLoop=1;jettySize=auto;html=1;entryX=0.55;entryY=0.95;entryDx=0;entryDy=0;strokeWidth=2;dashed=1;fillColor=#f8cecc;strokeColor=#0616ef;entryPerimeter=0;" edge="1" parent="WIyWlLk6GJQsqaUBKTNV-1" target="sJmcrCW9lOtQJ8LdQnkp-8">
          <mxGeometry relative="1" as="geometry">
            <mxPoint x="980" y="460" as="sourcePoint" />
            <mxPoint x="870" y="500" as="targetPoint" />
          </mxGeometry>
        </mxCell>
        <mxCell id="sJmcrCW9lOtQJ8LdQnkp-10" value="消费kafka数据" style="text;html=1;strokeColor=none;fillColor=none;align=center;verticalAlign=middle;whiteSpace=wrap;rounded=0;" vertex="1" parent="WIyWlLk6GJQsqaUBKTNV-1">
          <mxGeometry x="930" y="420" width="100" height="30" as="geometry" />
        </mxCell>
        <mxCell id="sJmcrCW9lOtQJ8LdQnkp-11" value="ElasticSearch" style="shape=cylinder3;whiteSpace=wrap;html=1;boundedLbl=1;backgroundOutline=1;size=15;" vertex="1" parent="WIyWlLk6GJQsqaUBKTNV-1">
          <mxGeometry x="930" y="220" width="100" height="80" as="geometry" />
        </mxCell>
        <mxCell id="sJmcrCW9lOtQJ8LdQnkp-12" style="edgeStyle=orthogonalEdgeStyle;rounded=0;orthogonalLoop=1;jettySize=auto;html=1;entryX=0.5;entryY=1;entryDx=0;entryDy=0;strokeWidth=2;dashed=1;fillColor=#f8cecc;strokeColor=#0616ef;entryPerimeter=0;" edge="1" parent="WIyWlLk6GJQsqaUBKTNV-1" target="sJmcrCW9lOtQJ8LdQnkp-11">
          <mxGeometry relative="1" as="geometry">
            <mxPoint x="980" y="340" as="sourcePoint" />
            <mxPoint x="870" y="500" as="targetPoint" />
          </mxGeometry>
        </mxCell>
        <mxCell id="sJmcrCW9lOtQJ8LdQnkp-13" value="kibana" style="shape=process;whiteSpace=wrap;html=1;backgroundOutline=1;" vertex="1" parent="WIyWlLk6GJQsqaUBKTNV-1">
          <mxGeometry x="920" y="130" width="120" height="60" as="geometry" />
        </mxCell>
        <mxCell id="sJmcrCW9lOtQJ8LdQnkp-14" style="edgeStyle=orthogonalEdgeStyle;rounded=0;orthogonalLoop=1;jettySize=auto;html=1;entryX=0.5;entryY=1;entryDx=0;entryDy=0;strokeWidth=2;dashed=1;fillColor=#f8cecc;strokeColor=#0616ef;" edge="1" parent="WIyWlLk6GJQsqaUBKTNV-1" target="sJmcrCW9lOtQJ8LdQnkp-13">
          <mxGeometry relative="1" as="geometry">
            <mxPoint x="980" y="220" as="sourcePoint" />
            <mxPoint x="990" y="310" as="targetPoint" />
          </mxGeometry>
        </mxCell>
      </root>
    </mxGraphModel>
  </diagram>
</mxfile>
